<svg width="183" height="53" viewBox="0 0 183 53" fill="none" xmlns="http://www.w3.org/2000/svg">
<g clip-path="url(#clip0_1121_489)">
<path fill-rule="evenodd" clip-rule="evenodd" d="M10 8C15.5228 8 20 12.4771 20 18V8H30C35.5228 8 40 12.4771 40 18C40 23.5228 35.5228 28 30 28C35.5228 28 40 32.4772 40 38C40 40.7423 38.8961 43.2268 37.1085 45.0334L37.0711 45.0711L37.0379 45.1041C35.2309 46.8943 32.7446 48 30 48C27.2741 48 24.8029 46.9093 22.999 45.1405C22.9756 45.1175 22.9522 45.0943 22.9289 45.0711C22.907 45.0492 22.8852 45.0272 22.8635 45.0051C21.0924 43.2009 20 40.728 20 38C20 43.5228 15.5228 48 10 48C4.47715 48 0 43.5228 0 38V28H10C4.47715 28 0 23.5228 0 18C0 12.4771 4.47715 8 10 8ZM18 18C18 22.4183 14.4183 26 10 26V10C14.4183 10 18 13.5817 18 18ZM38 38C38 33.5817 34.4183 30 30 30C25.5817 30 22 33.5817 22 38H38ZM2 30V38C2 42.4183 5.58172 46 10 46C14.4183 46 18 42.4183 18 38V30H2ZM22 26V10H30C34.4183 10 38 13.5817 38 18C38 22.4183 34.4183 26 30 26H22Z" fill="#B0ADFE"/>
</g>
<path d="M69.1599 43H63.0164V18.7796H54.1768V13.6526H78.0436V18.7796H69.1599V43ZM91.3721 34.735L91.4163 32.3483C90.8417 32.9229 89.8251 33.2323 87.7036 33.6301C84.433 34.2488 83.3722 35.177 83.3722 37.0333C83.3722 38.6686 84.3446 39.4642 86.1567 39.4642C89.118 39.4642 91.3279 37.2985 91.3721 34.735ZM97.162 43H91.814C91.6372 42.4696 91.5047 41.7183 91.4605 41.0553C90.0903 42.558 87.792 43.5746 84.875 43.5746C79.9248 43.5746 77.6265 41.1437 77.6265 37.6079C77.6265 31.3318 81.8253 30.6246 87.6152 29.829C90.4881 29.4313 91.2837 28.8567 91.2837 27.354C91.2837 25.9396 89.8693 25.0999 87.6152 25.0999C85.0076 25.0999 83.9468 26.3816 83.6816 28.3263H78.3337C78.4221 23.8181 80.8972 20.6801 87.8804 20.6801C94.7753 20.6801 97.162 23.7739 97.162 29.2545V43ZM107.43 43H101.685V21.2546H107.077V23.8623C108.977 20.9453 111.187 20.6801 113.53 20.6801H114.281V26.5584C113.751 26.47 113.22 26.4258 112.69 26.4258C109.154 26.4258 107.43 28.1937 107.43 31.6853V43ZM127.232 38.757C130.723 38.757 132.491 36.5471 132.491 32.1273C132.491 27.7075 130.723 25.5418 127.232 25.5418C123.74 25.5418 121.972 27.7075 121.972 32.1273C121.972 36.5471 123.74 38.757 127.232 38.757ZM127.232 43.5746C120.204 43.5746 116.05 38.8896 116.05 32.1273C116.05 25.2325 120.337 20.6801 127.232 20.6801C134.038 20.6801 138.281 25.1883 138.281 32.1273C138.281 39.0222 133.994 43.5746 127.232 43.5746ZM162.151 43H155.698L150.925 33.2323L148.14 36.1051V43H142.35V13.299H148.14V29.5196L155.3 21.2546H162.328L155.035 29.2545L162.151 43ZM171.45 43H165.704V13.299H171.45V43ZM181.862 43H175.718V37.0333H181.862V43Z" fill="black"/>
<defs>
<clipPath id="clip0_1121_489">
<rect width="40" height="40" fill="white" transform="translate(0 8)"/>
</clipPath>
</defs>
</svg>
